# xmcd CD Database Entry
#
# Track frame offsets:
# 150
# 19577
# 33514
# 46844
# 60016
# 73728
# 91363
# 103478
#
# Disc length: 1573 seconds
#
# Revision: 1
# Processed by: cddbd v1.4b41PL1 Copyright (c) Steve Scherf et al.
# Submitted via: tcd 2.0b
#
DISCID=61062308
DTITLE=Cameo Hill - my demo
DYEAR=1900
DGENRE=
TTITLE0=Electric
TTITLE1=Happy Ever (love spilling backwards)
TTITLE2=Okay
TTITLE3=Cinderella
TTITLE4=Pennies
TTITLE5=You Were There
TTITLE6=Not What I Need
TTITLE7=Everything and Nothing
EXTD=
EXTT0=
EXTT1=
EXTT2=
EXTT3=
EXTT4=
EXTT5=
EXTT6=
EXTT7=
PLAYORDER=
